HIERARCHY
ROOT SpineBase
{
  OFFSET 0.000000 0.000000 0.000000
  CHANNELS 6 Xposition Yposition Zposition Zrotation Xrotation Yrotation
  JOINT SpineMid
  {
    OFFSET 0.000000 26.218118 0.000000
    CHANNELS 3 Zrotation Xrotation Yrotation
    JOINT SpineShoulder
    {
      OFFSET 0.029083 19.577526 -0.590087
      CHANNELS 3 Zrotation Xrotation Yrotation
      JOINT Neck
      {
        OFFSET 0.005935 6.516265 -0.466044
        CHANNELS 3 Zrotation Xrotation Yrotation
        JOINT Head
        {
          OFFSET 2.880657 10.517241 1.231875
          CHANNELS 3 Zrotation Xrotation Yrotation
          End Site
          {
            OFFSET 0 0 0
          }
        }
      }
      JOINT ShoulderLeft
      {
        OFFSET -11.894257 -1.868884 -7.759298
        CHANNELS 3 Zrotation Xrotation Yrotation
        JOINT ElbowLeft
        {
          OFFSET -4.442639 -22.073354 -2.104753
          CHANNELS 3 Zrotation Xrotation Yrotation
          JOINT WristLeft
          {
            OFFSET 1.297577 -22.121263 -5.622679
            CHANNELS 3 Zrotation Xrotation Yrotation
            JOINT HandLeft
            {
              OFFSET 0.629020 -6.241040 -0.419423
              CHANNELS 3 Zrotation Xrotation Yrotation
              JOINT HandTipLeft
              {
                OFFSET -0.079229 -6.092410 -0.170574
                CHANNELS 3 Zrotation Xrotation Yrotation
                End Site
                {
                  OFFSET 0 0 0
                }
              }
              JOINT ThumbLeft
              {
                OFFSET 3.172526 2.199654 0.435361
                CHANNELS 3 Zrotation Xrotation Yrotation
                End Site
                {
                  OFFSET 0 0 0
                }
              }
            }
          }
        }
      }
      JOINT ShoulderRight
      {
        OFFSET 12.126034 -3.698425 4.941706
        CHANNELS 3 Zrotation Xrotation Yrotation
        JOINT ElbowRight
        {
          OFFSET 1.082503 -18.978206 0.673843
          CHANNELS 3 Zrotation Xrotation Yrotation
          JOINT WristRight
          {
            OFFSET 1.525418 -25.713073 -0.442061
            CHANNELS 3 Zrotation Xrotation Yrotation
            JOINT HandRight
            {
              OFFSET -0.324660 -5.536614 -1.334524
              CHANNELS 3 Zrotation Xrotation Yrotation
              JOINT HandTipRight
              {
                OFFSET -0.452602 -6.880670 -0.136451
                CHANNELS 3 Zrotation Xrotation Yrotation
                End Site
                {
                  OFFSET 0 0 0
                }
              }
              JOINT ThumbRight
              {
                OFFSET -2.371480 1.120130 -2.814138
                CHANNELS 3 Zrotation Xrotation Yrotation
                End Site
                {
                  OFFSET 0 0 0
                }
              }
            }
          }
        }
      }
    }
  }
  JOINT HipLeft
  {
    OFFSET -4.421514 1.097833 -5.309377
    CHANNELS 3 Zrotation Xrotation Yrotation
    JOINT KneeLeft
    {
      OFFSET -7.222715 -33.620078 0.406666
      CHANNELS 3 Zrotation Xrotation Yrotation
      JOINT AnkleLeft
      {
        OFFSET -3.050777 -32.151249 5.623065
        CHANNELS 3 Zrotation Xrotation Yrotation
        JOINT FootLeft
        {
          OFFSET 2.806796 -2.994916 -6.051079
          CHANNELS 3 Zrotation Xrotation Yrotation
          End Site
          {
            OFFSET 0 0 0
          }
        }
      }
    }
  }
  JOINT HipRight
  {
    OFFSET 4.070048 0.465418 -0.730338
    CHANNELS 3 Zrotation Xrotation Yrotation
    JOINT KneeRight
    {
      OFFSET -2.136252 -29.406186 1.099206
      CHANNELS 3 Zrotation Xrotation Yrotation
      JOINT AnkleRight
      {
        OFFSET -7.130938 -37.586485 6.296305
        CHANNELS 3 Zrotation Xrotation Yrotation
        JOINT FootRight
        {
          OFFSET 0.610378 -3.495761 -6.757189
          CHANNELS 3 Zrotation Xrotation Yrotation
          End Site
          {
            OFFSET 0 0 0
          }
        }
      }
    }
  }
}
MOTION
Frames: 9
Frame Time: 0.033333
21.788973 72.292757 369.150396 -0.000000 0.000000 -28.335577 -0.000000 0.000000 28.335577 -0.000000 0.000000 0.000000 -0.000000 0.000000 0.000000 0.000000 0.000000 0.000000 -0.000000 0.000000 0.000000 -0.000000 0.000000 0.000000 -0.000000 0.000000 0.000000 -0.000000 0.000000 0.000000 0.000000 0.000000 0.000000 0.000000 0.000000 0.000000 -0.000000 0.000000 0.000000 -0.000000 0.000000 0.000000 -0.000000 0.000000 0.000000 -0.000000 0.000000 0.000000 0.000000 0.000000 0.000000 0.000000 0.000000 0.000000 -0.000000 0.000000 28.335577 -0.000000 0.000000 0.000000 -0.000000 0.000000 0.000000 0.000000 0.000000 0.000000 -0.000000 0.000000 28.335577 -0.000000 0.000000 0.000000 -0.000000 0.000000 0.000000 0.000000 0.000000 0.000000
21.813845 72.265917 369.188970 -0.037652 -0.024544 -28.226818 0.021567 0.039433 28.226803 -0.000000 0.000000 0.000000 -0.000000 0.000000 0.000000 0.000000 0.000000 0.000000 -0.000000 0.000000 0.000000 -0.000000 0.000000 0.000000 0.859627 -0.452627 -0.099946 0.331136 4.288156 -0.025903 0.000000 0.000000 0.000000 0.000000 0.000000 0.000000 -0.000000 0.000000 0.000000 -0.276211 1.242057 0.081427 -2.415042 -0.220116 0.477214 2.497467 3.054205 -0.824303 0.000000 0.000000 0.000000 0.000000 0.000000 0.000000 0.021567 0.039433 28.226803 -0.000000 0.000000 0.000000 -5.718199 -19.446510 -12.828910 0.000000 0.000000 0.000000 0.021567 0.039433 28.226803 -0.000000 0.000000 0.000000 3.000418 5.154140 -4.610634 0.000000 0.000000 0.000000
21.832165 72.244565 369.227104 -0.062709 -0.038765 -28.123268 0.037032 0.063747 28.123226 -0.000000 0.000000 0.000000 -0.000000 0.000000 0.000000 0.000000 0.000000 0.000000 -0.000000 0.000000 0.000000 -0.374631 0.799494 0.144505 1.896353 -1.507246 -0.281838 0.565038 7.410378 -0.111668 0.000000 0.000000 0.000000 0.000000 0.000000 0.000000 -0.000000 0.000000 0.000000 -0.537964 2.243040 0.152856 -4.140916 -0.531784 0.777373 4.565203 5.734944 -1.437425 0.000000 0.000000 0.000000 0.000000 0.000000 0.000000 -0.722541 0.693395 27.927631 0.376279 -0.912032 0.203609 -16.084691 -35.251489 -28.433082 0.000000 0.000000 0.000000 0.037032 0.063747 28.123226 -0.000000 0.000000 0.000000 5.356569 8.638073 -8.006109 0.000000 0.000000 0.000000
21.843934 72.228702 369.264798 -0.075184 -0.042677 -28.024918 0.046316 0.072998 28.024860 -0.000000 0.000000 0.000000 -0.000000 0.000000 0.000000 0.000000 0.000000 0.000000 -0.000000 0.000000 0.000000 -0.564978 1.020009 0.208056 2.600313 -1.812206 -0.363485 0.690608 9.500382 -0.206110 0.000000 0.000000 0.000000 0.000000 0.000000 0.000000 -0.000000 0.000000 0.000000 -0.787602 3.016762 0.213280 -5.212686 -0.919825 0.937534 6.219792 7.953670 -1.884697 0.000000 0.000000 0.000000 0.000000 0.000000 0.000000 -0.990244 0.913073 27.763758 0.578520 -2.053206 0.364024 -26.514273 -42.740599 -41.820981 0.000000 0.000000 0.000000 0.046316 0.072998 28.024860 0.820706 -0.039880 0.145524 6.260183 10.947524 -10.503889 0.000000 0.000000 0.000000
21.849153 72.218327 369.302052 -0.075096 -0.036296 -27.931748 0.049346 0.067244 27.931696 -0.000000 0.000000 0.000000 -0.000000 0.000000 0.000000 0.000000 0.000000 0.000000 -0.000000 0.000000 0.000000 -0.747868 1.092443 0.260772 3.177354 -1.815999 -0.419694 0.698450 10.651639 -0.279097 0.000000 0.000000 0.000000 0.000000 0.000000 0.000000 -0.000000 0.000000 0.000000 -1.027366 3.572261 0.261691 -5.661709 -1.373992 0.987293 7.482400 9.646728 -2.195561 0.000000 0.000000 0.000000 0.000000 0.000000 0.000000 -1.187239 1.038953 27.627357 0.777487 -2.386982 0.441254 -33.189685 -45.869893 -50.066804 0.000000 0.000000 0.000000 0.049346 0.067244 27.931696 1.035359 0.019930 0.169778 7.127212 12.289330 -11.962727 0.000000 0.000000 0.000000
21.847820 72.213442 369.338866 -0.062469 -0.019642 -27.843731 0.046063 0.046545 27.843701 -0.000000 0.000000 0.000000 -0.000000 0.000000 0.000000 0.000000 0.000000 0.000000 -0.000000 0.000000 0.000000 -0.915850 1.005731 0.299297 3.639643 -1.513086 -0.455620 0.579117 10.913252 -0.314806 0.000000 0.000000 0.000000 0.000000 0.000000 0.000000 -0.000000 0.000000 0.000000 -1.259462 3.913778 0.296980 -5.509956 -1.887942 0.948784 8.372471 10.765462 -2.383731 0.000000 0.000000 0.000000 0.000000 0.000000 0.000000 -1.309665 1.066951 27.518647 0.973524 -2.540749 0.493633 -35.032591 -46.454281 -52.538819 0.000000 0.000000 0.000000 0.046063 0.046545 27.843701 1.224851 0.117437 0.182054 7.433541 12.904658 -12.594490 0.000000 0.000000 0.000000
21.833703 72.207257 369.373137 -0.043474 0.009564 -27.691075 0.042939 0.011734 27.691074 -0.000000 0.000000 0.000000 -0.000000 0.000000 0.000000 0.000000 0.000000 0.000000 -0.000000 0.000000 0.000000 -1.107151 0.516743 0.316539 4.271362 -0.355288 -0.475981 -0.532391 8.743060 -0.198696 0.000000 0.000000 0.000000 0.000000 0.000000 0.000000 -0.000000 0.000000 0.000000 -1.566518 3.968162 0.316776 -3.896485 -3.263114 0.714132 6.536935 11.252320 -2.143599 0.000000 0.000000 0.000000 0.000000 0.000000 0.000000 -1.409670 0.989234 27.363179 0.966726 -2.412660 0.460354 -25.928156 -42.280974 -43.449801 0.000000 0.000000 0.000000 -0.321074 -0.832858 27.703779 2.112100 0.883896 0.139676 4.421255 13.213943 -7.815084 0.000000 0.000000 0.000000
21.823444 72.206004 369.407327 0.002852 0.052048 -27.598324 0.021585 -0.047447 27.598332 -0.000000 0.000000 0.000000 -0.000000 0.000000 0.000000 0.000000 0.000000 0.000000 -0.000000 0.000000 0.000000 -1.288180 0.165033 0.339072 4.949493 0.759904 -0.503112 -2.097109 7.650620 -0.128628 0.000000 0.000000 0.000000 0.000000 0.000000 0.000000 -0.000000 0.000000 0.000000 -1.935836 4.066574 0.343501 -2.257682 -4.128235 0.501150 7.388149 10.146461 -2.025917 0.000000 0.000000 0.000000 0.000000 0.000000 0.000000 -1.222000 0.680570 27.333914 1.511076 -2.036559 0.507155 -14.232362 -32.257489 -29.017224 0.000000 0.000000 0.000000 -0.390953 -1.163520 27.618933 2.388617 1.241111 0.110399 3.724917 8.125556 -7.902909 0.000000 0.000000 0.000000
21.804437 72.221302 369.440985 0.038385 0.108220 -27.519616 0.015962 -0.113711 27.519596 -0.000000 0.000000 0.000000 -0.000000 0.000000 0.000000 0.000000 0.000000 0.000000 -0.000000 0.000000 0.000000 -1.296838 -0.150591 0.319419 4.613865 1.085752 -0.483456 -1.267845 6.966120 -0.170300 0.000000 0.000000 0.000000 0.000000 0.000000 0.000000 -0.000000 0.000000 0.000000 -2.106415 3.740541 0.327166 -0.877292 -4.805866 0.364017 7.918476 9.273422 -1.892919 0.000000 0.000000 0.000000 0.000000 0.000000 0.000000 -1.096414 0.440557 27.298187 1.989651 -1.820102 0.558808 -9.947017 -25.728683 -21.976432 0.000000 0.000000 0.000000 -0.335345 -1.672196 27.564131 2.590173 1.936973 0.020543 3.395660 3.437123 -8.427914 0.000000 0.000000 0.000000
